<?xml version="1.0" encoding="iso-8859-1"?>
<!-- Generator: Adobe Illustrator 19.0.0, SVG Export Plug-In . SVG Version: 6.00 Build 0)  -->
<svg version="1.1" id="Layer_1" xmlns="http://www.w3.org/2000/svg" xmlns:xlink="http://www.w3.org/1999/xlink" x="0px" y="0px"
	 viewBox="0 0 512 512" style="enable-background:new 0 0 512 512;" xml:space="preserve">
<path style="fill:#FFB819;" d="M166.354,112.23c0-9.5-7.772-17.271-17.271-17.271H88.258c-9.5,0-17.271,7.772-17.271,17.271v204.285
	c0,9.5,7.772,17.271,17.271,17.271h60.825c9.5,0,17.271-7.772,17.271-17.271V112.23z"/>
<path style="fill:#0071CE;" d="M261.724,64.93c0-9.5-7.772-17.271-17.271-17.271h-60.825c-9.5,0-17.272,7.772-17.272,17.271v204.283
	c0,9.501,7.773,17.272,17.272,17.272h60.825c9.5,0,17.271-7.772,17.271-17.272V64.93z"/>
<rect x="206.106" y="93.59" style="fill:#00B3E3;" width="15.877" height="146.948"/>
<rect x="70.981" y="137.39" style="opacity:0.2;enable-background:new    ;" width="190.737" height="35.194"/>
<path style="fill:#00AD68;" d="M324.883,59.872c-6.718-6.717-17.708-6.717-24.426,0l-33.687,33.686
	c-6.718,6.717-6.718,17.708,0,24.425l129.603,129.603c6.716,6.717,17.708,6.717,24.425,0l33.687-33.686
	c6.717-6.718,6.717-17.708,0-24.426L324.883,59.872z"/>
<g>
	<circle style="fill:#FFFFFF;" cx="314.399" cy="107.499" r="7.912"/>
	
		<rect x="319.339" y="160.392" transform="matrix(-0.7071 -0.7071 0.7071 -0.7071 521.5411 552.6903)" style="fill:#FFFFFF;" width="111.795" height="15.877"/>
</g>
<polygon style="opacity:0.2;enable-background:new    ;" points="402.4,137.388 286.174,137.388 321.365,172.578 437.59,172.578 "/>
<rect x="38.391" y="176.945" style="fill:#D1D3D3;" width="435.224" height="280.083"/>
<rect x="38.391" y="297.516" style="opacity:0.1;enable-background:new    ;" width="45.864" height="22.071"/>
<rect x="110.822" y="233.129" style="opacity:0.1;enable-background:new    ;" width="45.864" height="22.071"/>
<rect x="252.16" y="226.164" style="opacity:0.1;enable-background:new    ;" width="45.864" height="22.071"/>
<rect x="181.444" y="190.727" style="opacity:0.1;enable-background:new    ;" width="45.864" height="22.071"/>
<rect x="427.751" y="257.654" style="opacity:0.1;enable-background:new    ;" width="45.864" height="22.071"/>
<rect x="420.183" y="393.276" style="opacity:0.1;enable-background:new    ;" width="45.864" height="22.071"/>
<rect x="323.766" y="413.927" style="opacity:0.1;enable-background:new    ;" width="45.864" height="22.071"/>
<rect x="242.327" y="351.572" style="opacity:0.1;enable-background:new    ;" width="45.864" height="22.07"/>
<rect x="57.327" y="411.81" style="opacity:0.1;enable-background:new    ;" width="45.864" height="22.071"/>
<rect x="38.391" y="176.945" style="opacity:0.1;enable-background:new    ;" width="435.224" height="41.365"/>
<g>
	<path style="fill:#333E48;" d="M491.901,191.173c0,5.822-4.763,10.585-10.585,10.585H30.683c-5.822,0-10.585-4.763-10.585-10.585
		v-24.89c0-5.822,4.763-10.585,10.585-10.585h450.632c5.822,0,10.585,4.763,10.585,10.585v24.89H491.901z"/>
	<rect x="265.254" y="226.693" style="fill:#333E48;" width="177.855" height="191.923"/>
</g>
<path style="fill:#00AD68;" d="M340.937,306.288c0,3.166-2.59,5.757-5.756,5.757h-41.975c-3.166,0-5.757-2.591-5.757-5.757v-53.193
	c0-3.167,2.591-5.757,5.757-5.757h41.975c3.166,0,5.756,2.59,5.756,5.757V306.288z"/>
<rect x="301.951" y="261.803" style="fill:#FFFFFF;" width="24.472" height="15.877"/>
<path style="fill:#0071CE;" d="M420.921,306.288c0,3.166-2.59,5.757-5.757,5.757H373.19c-3.166,0-5.756-2.591-5.756-5.757v-53.193
	c0-3.167,2.59-5.757,5.756-5.757h41.975c3.167,0,5.757,2.59,5.757,5.757V306.288z"/>
<rect x="381.94" y="261.803" style="fill:#FFFFFF;" width="24.472" height="15.877"/>
<path style="fill:#00B3E3;" d="M340.937,392.205c0,3.166-2.59,5.757-5.756,5.757h-41.975c-3.166,0-5.757-2.591-5.757-5.757v-53.193
	c0-3.167,2.591-5.758,5.757-5.758h41.975c3.166,0,5.756,2.59,5.756,5.758V392.205z"/>
<rect x="301.951" y="347.719" style="fill:#FFFFFF;" width="24.472" height="15.877"/>
<path style="fill:#FFB819;" d="M420.921,392.205c0,3.166-2.59,5.757-5.757,5.757H373.19c-3.166,0-5.756-2.591-5.756-5.757v-53.193
	c0-3.167,2.59-5.758,5.756-5.758h41.975c3.167,0,5.757,2.59,5.757,5.758V392.205z"/>
<rect x="381.94" y="347.719" style="fill:#FFFFFF;" width="24.472" height="15.877"/>
<rect x="80.261" y="268.683" style="fill:#D68231;" width="143.116" height="188.345"/>
<rect x="105.498" y="295.738" style="fill:#333E48;" width="92.648" height="66.525"/>
<rect x="129.843" y="316.823" style="fill:#FFFFFF;" width="43.946" height="15.877"/>
<path style="fill:#A4A9AD;" d="M504.061,460.065c0,2.352-1.922,4.276-4.275,4.276H12.214c-2.352,0-4.275-1.924-4.275-4.276v-15.302
	c0-2.352,1.923-4.276,4.275-4.276h487.573c2.353,0,4.275,1.924,4.275,4.276V460.065z"/>
<path style="fill:#1E252B;" d="M113.41,401.269c4.369,0,7.912-3.543,7.912-7.912c0-4.369-3.543-7.912-7.912-7.912
	c-4.37,0-7.913,3.543-7.913,7.912S109.04,401.269,113.41,401.269z M265.255,426.547h177.86c4.385,0,7.939-3.554,7.939-7.939V226.69
	c0-4.384-3.553-7.939-7.939-7.939h-177.86c-4.385,0-7.939,3.554-7.939,7.939v191.918
	C257.316,422.993,260.87,426.547,265.255,426.547z M273.193,234.629h161.983V410.67H273.193V234.629z M499.786,432.548h-18.234
	V209.685c10.104-0.129,18.286-8.378,18.286-18.512v-24.89c0-10.213-8.31-18.523-18.523-18.523H424l-93.504-93.502
	c-9.828-9.829-25.824-9.826-35.654,0l-25.181,25.181V64.93c0-13.901-11.31-25.21-25.21-25.21h-60.825
	c-13.901,0-25.21,11.31-25.21,25.21v23.889c-2.889-1.156-6.036-1.798-9.334-1.798H88.258c-13.901,0-25.21,11.309-25.21,25.21v35.53
	H30.683c-10.213,0-18.523,8.31-18.523,18.523v24.89c0,10.134,8.183,18.384,18.287,18.512v222.863H12.214
	C5.48,432.548,0,438.027,0,444.763v15.302c0,6.735,5.48,12.215,12.214,12.215h487.573c6.734,0,12.214-5.48,12.214-12.215v-15.302
	C512,438.027,506.52,432.548,499.786,432.548z M272.383,99.171l33.687-33.686c3.64-3.638,9.561-3.639,13.2,0l82.277,82.276h-93.771
	l-35.393-35.392c-1.749-1.749-2.713-4.093-2.713-6.599C269.67,103.264,270.634,100.92,272.383,99.171z M269.662,132.102
	l15.659,15.658h-15.659V132.102L269.662,132.102z M174.294,64.93c0-5.146,4.186-9.333,9.333-9.333h60.825
	c5.146,0,9.333,4.187,9.333,9.333v82.831h-79.491V64.93H174.294z M78.924,112.23c0-5.146,4.186-9.333,9.333-9.333h60.825
	c5.146,0,9.333,4.186,9.333,9.333v35.53H78.923v-35.53H78.924z M28.037,191.173v-24.89c0-1.434,1.211-2.646,2.646-2.646h450.632
	c1.434,0,2.646,1.212,2.646,2.646v24.89c0,1.434-1.212,2.646-2.646,2.646H30.683C29.249,193.819,28.037,192.607,28.037,191.173z
	 M229.044,263.124c-1.492-1.521-3.534-2.377-5.665-2.377H80.261c-4.327,0-7.857,3.465-7.938,7.791l-3.04,164.011H46.325V209.698
	h419.351v222.851H228.281l3.035-163.715C231.355,266.702,230.537,264.644,229.044,263.124z M215.291,276.624l-2.89,155.925H85.164
	l2.89-155.925H215.291z M496.123,456.403H15.877v-7.978h480.246V456.403z"/>
<g>
</g>
<g>
</g>
<g>
</g>
<g>
</g>
<g>
</g>
<g>
</g>
<g>
</g>
<g>
</g>
<g>
</g>
<g>
</g>
<g>
</g>
<g>
</g>
<g>
</g>
<g>
</g>
<g>
</g>
</svg>
